<?xml version="1.0" standalone="no"?>
<!DOCTYPE svg PUBLIC "-//W3C//DTD SVG 20010904//EN"
 "http://www.w3.org/TR/2001/REC-SVG-20010904/DTD/svg10.dtd">
<svg version="1.0" xmlns="http://www.w3.org/2000/svg"
 width="56.000000pt" height="56.000000pt" viewBox="0 0 56.000000 56.000000"
 preserveAspectRatio="xMidYMid meet">

<g transform="translate(0.000000,56.000000) scale(0.100000,-0.100000)"
fill="#000000" stroke="none">
<path d="M327 392 c-33 -18 -46 -32 -44 -43 3 -9 33 -60 67 -113 l62 -96 68 0
c38 0 72 5 75 10 7 12 -155 270 -170 269 -5 0 -32 -12 -58 -27z"/>
<path d="M188 303 c-27 -14 -48 -30 -48 -35 0 -5 18 -36 40 -69 l41 -59 69 0
c38 0 71 4 74 9 7 11 -103 181 -118 181 -6 0 -32 -12 -58 -27z"/>
<path d="M57 221 c-61 -36 -61 -36 -47 -60 9 -18 20 -21 80 -21 38 0 72 5 75
10 7 11 -26 70 -48 88 -8 7 -26 2 -60 -17z"/>
</g>
</svg>
