<?xml version="1.0" standalone="no"?>
<!DOCTYPE svg PUBLIC "-//W3C//DTD SVG 20010904//EN"
 "http://www.w3.org/TR/2001/REC-SVG-20010904/DTD/svg10.dtd">
<svg version="1.0" xmlns="http://www.w3.org/2000/svg"
 width="56.000000pt" height="56.000000pt" viewBox="0 0 56.000000 56.000000"
 preserveAspectRatio="xMidYMid meet">

<g transform="translate(0.000000,56.000000) scale(0.100000,-0.100000)"
fill="#000000" stroke="none">
<path d="M130 471 c-40 -12 -84 -37 -103 -59 -18 -19 -18 -20 4 -36 22 -15 25
-14 54 14 33 32 79 46 119 36 l25 -6 -18 -33 c-10 -17 -22 -49 -25 -69 -8 -42
10 -122 30 -139 25 -20 15 -29 -31 -29 -50 0 -99 20 -114 47 -8 15 -13 15 -36
5 l-28 -13 28 -29 c42 -44 103 -64 167 -56 66 9 90 9 156 0 64 -8 125 12 167
56 l28 29 -28 13 c-23 10 -28 10 -36 -5 -15 -27 -64 -47 -114 -47 -25 0 -45 2
-45 4 0 3 10 22 22 43 31 51 31 134 1 186 l-22 37 24 6 c43 11 92 -5 120 -37
25 -30 26 -31 51 -14 30 20 23 33 -40 70 -56 33 -111 40 -163 22 -37 -12 -49
-13 -80 -1 -42 15 -76 16 -113 5z m179 -141 c12 -38 12 -49 0 -84 -8 -22 -20
-41 -27 -44 -20 -6 -45 65 -37 107 16 82 42 91 64 21z"/>
</g>
</svg>
