<?xml version="1.0" standalone="no"?>
<!DOCTYPE svg PUBLIC "-//W3C//DTD SVG 20010904//EN"
 "http://www.w3.org/TR/2001/REC-SVG-20010904/DTD/svg10.dtd">
<svg version="1.0" xmlns="http://www.w3.org/2000/svg"
 width="56.000000pt" height="56.000000pt" viewBox="0 0 56.000000 56.000000"
 preserveAspectRatio="xMidYMid meet">

<g transform="translate(0.000000,56.000000) scale(0.100000,-0.100000)"
fill="#000000" stroke="none">
<path d="M254 357 c-3 -8 -4 -47 -2 -88 l3 -74 62 -3 62 -3 37 56 37 56 19
-28 18 -28 -38 -5 c-24 -3 -37 -10 -37 -20 0 -12 14 -15 65 -15 56 0 65 2 64
17 -2 23 -75 136 -92 143 -7 2 -27 -15 -45 -41 -50 -72 -50 -73 -79 -80 -28
-6 -28 -6 -28 48 0 50 -12 78 -32 78 -5 0 -11 -6 -14 -13z"/>
<path d="M20 340 c0 -20 5 -21 73 -18 56 2 72 6 72 18 0 12 -16 16 -72 18 -68
3 -73 2 -73 -18z"/>
<path d="M186 344 c-8 -20 -8 -108 0 -128 3 -9 15 -16 25 -16 17 0 19 8 19 80
0 72 -2 80 -19 80 -10 0 -22 -7 -25 -16z"/>
<path d="M27 304 c-11 -11 -8 -92 3 -99 15 -9 40 14 40 36 0 14 9 19 43 21 34
2 42 7 42 23 0 17 -8 20 -60 23 -34 2 -64 0 -68 -4z"/>
</g>
</svg>
