<?xml version="1.0" standalone="no"?>
<!DOCTYPE svg PUBLIC "-//W3C//DTD SVG 20010904//EN"
 "http://www.w3.org/TR/2001/REC-SVG-20010904/DTD/svg10.dtd">
<svg version="1.0" xmlns="http://www.w3.org/2000/svg"
 width="56.000000pt" height="56.000000pt" viewBox="0 0 56.000000 56.000000"
 preserveAspectRatio="xMidYMid meet">

<g transform="translate(0.000000,56.000000) scale(0.100000,-0.100000)"
fill="#000000" stroke="none">
<path d="M36 461 c-20 -21 -27 -36 -23 -52 3 -12 1 -29 -6 -39 -23 -38 13 -52
127 -51 16 0 40 -8 53 -19 14 -11 47 -23 75 -26 46 -6 51 -10 84 -61 19 -29
41 -56 49 -59 8 -4 15 -14 15 -24 0 -26 34 -64 52 -57 8 3 17 16 20 29 5 25
-15 82 -32 93 -5 3 -10 23 -10 43 0 21 -7 47 -15 59 -10 14 -12 24 -5 28 6 4
22 24 36 46 19 31 30 39 54 39 23 0 33 6 42 24 14 32 4 56 -23 56 -23 0 -99
-72 -99 -94 0 -23 -40 -56 -69 -56 -18 0 -56 20 -110 59 -45 33 -95 63 -112
66 -16 4 -31 11 -34 16 -11 18 -42 9 -69 -20z"/>
</g>
</svg>
